<svg width="194" height="65" viewBox="0 0 194 65" fill="none" xmlns="http://www.w3.org/2000/svg">
<path d="M174.687 64.6765C174.56 64.6765 174.434 64.6765 174.308 64.6765C173.81 64.2908 173.863 63.7315 173.859 63.2007C173.843 60.6133 173.863 58.0258 173.842 55.4385C173.84 55.0975 174.041 54.5322 173.562 54.4741C173.09 54.4168 172.871 54.9405 172.727 55.3671C172.646 55.6061 172.666 55.8686 172.61 56.114C172.402 57.0165 171.594 57.4196 170.817 56.9112C170.115 56.4525 169.468 56.5261 168.75 56.7667C165.429 57.8788 162.106 58.9849 158.783 60.0908C158.304 60.2502 157.83 60.4319 157.335 60.532C156.546 60.6915 156.201 60.453 156.101 59.6645C156.018 59.0059 156.066 58.3407 156.05 57.6785C156.021 56.4866 155.793 56.2429 154.582 56.2394C149.313 56.2243 144.042 56.1723 138.774 56.2687C137.061 56.3001 135.788 55.86 134.636 54.566C133.086 52.8252 131.363 51.2381 129.704 49.5944C129.51 49.4021 129.321 49.0784 129.013 49.1833C128.628 49.3147 128.761 49.719 128.759 50.0117C128.747 53.2302 128.754 56.4487 128.751 59.6672C128.75 60.1404 128.75 60.6134 128.706 61.0858C128.651 61.6781 128.337 61.9974 127.743 62.0545C127.334 62.0939 126.924 62.1007 126.514 62.1009C116.48 62.1039 106.446 62.1054 96.4116 62.0999C94.2066 62.0987 94.1491 62.0313 94.1381 59.7979C94.1345 59.0722 94.1432 58.3463 94.1341 57.6207C94.1171 56.2776 93.9132 56.0697 92.6066 56.0461C92.3858 56.0421 92.1649 56.0437 91.944 56.0437C73.4534 56.0436 54.9628 56.0432 36.4722 56.0441C34.3022 56.0443 34.2717 56.0786 34.2673 58.2852C34.2659 58.9478 34.2892 59.6113 34.2396 60.2725C34.1694 61.209 33.9512 61.427 33.0323 61.5065C32.6548 61.5392 32.2756 61.5334 31.897 61.5335C27.4164 61.5353 22.9357 61.5356 18.4551 61.5334C18.0449 61.5332 17.6352 61.5239 17.2253 61.4985C16.5423 61.4561 16.2002 61.0999 16.1613 60.4196C16.0981 59.3158 16.1463 58.2112 16.1214 57.1073C16.0946 55.9186 15.8621 55.6755 14.651 55.6709C10.6121 55.6557 6.57323 55.6669 2.53433 55.6645C2.06105 55.6643 1.5872 55.6762 1.11472 55.6465C0.149139 55.586 0.0154719 55.4576 0.0153377 54.5191C0.012779 36.628 0.0168734 18.737 1.58975e-06 0.845945C-0.000621554 0.185242 0.18178 -0.00341312 0.844572 4.65243e-05C5.8615 0.0262421 10.8786 0.0122033 15.8957 0.0162956C16.8245 0.0170484 16.9754 0.153712 17.0143 1.11927C17.0714 2.53814 17.0257 3.95878 17.0388 5.37858C17.0523 6.83531 17.2367 7.03157 18.6715 7.03461C23.1521 7.0441 27.6328 7.03017 32.1134 7.04169C34.154 7.04692 34.2501 7.15069 34.2652 9.18412C34.2738 10.3516 34.2578 11.5192 34.2716 12.6866C34.2872 13.9976 34.5075 14.2257 35.8313 14.2284C41.3216 14.2394 46.8122 14.2052 52.3023 14.2429C55.691 14.2661 54.935 13.7755 56.8961 16.8289C58.6689 19.589 60.4236 22.3608 62.1674 25.1395C62.3143 25.3736 62.4312 25.6443 62.8527 25.8208C62.8448 24.1957 63.1715 22.6724 62.0066 21.2345C58.4921 16.8964 58.3373 10.9354 61.6802 6.48283C66.2773 0.359457 74.1786 -0.0594001 79.4671 4.11048C80.2187 4.70317 80.8836 5.36473 81.4476 6.12784C81.9427 6.79792 82.5865 7.04714 83.4091 7.04341C86.5013 7.0294 89.5937 7.03451 92.6859 7.03889C92.9699 7.0393 93.254 7.0386 93.5377 7.05137C94.7852 7.10747 94.9968 7.31336 95.0342 8.59268C95.0766 10.0417 95.0307 11.4919 95.0594 13.1204C96.0139 11.0239 96.8341 9.05301 97.7233 7.1135C98.1964 6.08164 98.5872 5.01052 99.1478 4.02071C99.6611 3.11424 100.198 3.12248 100.733 4.02321C101.057 4.5678 101.28 5.16326 101.512 5.74637C101.892 6.7013 102.533 7.06306 103.558 7.05151C106.871 7.01418 110.184 7.01795 113.497 7.04344C116.493 7.0665 115.915 6.73587 117.351 9.4375C119.008 12.5562 120.563 15.7311 122.202 18.8612C122.477 19.3867 122.596 20.1508 123.456 20.0579C124.185 19.9791 125.229 18.9542 125.34 18.2534C125.395 17.9097 125.377 17.5606 125.378 17.2137C125.383 14.437 125.365 11.6602 125.387 8.88355C125.4 7.24012 125.569 7.05601 127.166 7.04819C131.773 7.02563 136.38 7.02593 140.987 7.04808C142.559 7.05563 142.724 7.23978 142.757 8.79658C142.778 9.83765 142.736 10.8798 142.778 11.9201C142.813 12.7827 143.073 13.0705 143.934 13.0787C147.657 13.1139 151.38 13.1055 155.103 13.0855C155.897 13.0812 156.229 12.6459 156.237 11.8867C156.245 11.1612 156.247 10.4356 156.266 9.70995C156.283 9.01742 156.604 8.59679 157.252 8.37612C157.79 8.19308 158.325 8.00159 158.863 7.82218C164.072 6.08759 169.279 4.34765 174.489 2.61522C176.586 1.9179 176.831 2.09984 176.845 4.34417C176.859 6.58308 176.52 8.81336 176.667 11.0538C176.703 11.5971 176.372 12.3401 177.206 12.5723C177.826 12.7453 179.076 12.0184 179.32 11.4062C179.609 10.6791 179.581 9.91039 179.486 9.16198C179.323 7.87954 179.189 6.59392 179.028 5.31142C178.884 4.16362 178.939 3.04079 179.587 2.02203C180.038 1.3136 180.449 1.22667 181.147 1.70155C182.574 2.67345 182.815 3.38734 182.108 4.97283C181.322 6.73635 181.759 8.43624 182.28 10.1339C182.475 10.771 183.012 10.7368 183.536 10.5702C185.01 10.1018 186.471 9.5973 187.939 9.11272C189.497 8.59849 191.046 8.05539 192.614 7.57155C193.046 7.4382 193.525 7.20015 193.886 7.7372C193.93 9.67725 193.893 11.6167 193.905 13.5562C193.905 19.6679 193.952 25.78 193.884 31.8909C193.853 34.629 193.826 37.3673 193.814 40.1057C193.813 40.4762 193.734 40.8686 194 41.1974C194 41.9548 194 42.7122 194 43.4696C193.786 44.7793 193.962 46.0984 193.905 47.4116C193.905 48.1876 193.905 48.9639 193.905 49.7394C193.921 50.9965 193.844 52.2526 193.823 53.5088C193.791 55.5065 192.865 57.0705 191.504 58.3868C190.487 59.37 189.31 60.1549 187.924 60.6049C184.51 61.7131 181.105 62.8497 177.71 64.0137C176.719 64.3533 175.674 64.3652 174.687 64.6765Z" fill="white"/>
<path d="M30.4858 10.0772C27.2682 10.1082 24.0494 10.1265 20.8324 10.0682C19.9383 10.052 19.7501 10.3309 19.7561 11.1724C19.7932 16.3778 19.7578 21.5838 19.7929 26.789C19.7983 27.5868 19.6536 27.9245 18.7722 27.8544C17.7063 27.7694 16.6245 27.7779 15.5571 27.8523C14.7234 27.9104 14.5048 27.6591 14.5089 26.8141C14.5447 19.2424 14.5104 11.6703 14.5543 4.09867C14.5599 3.15101 14.2785 2.9688 13.3977 2.98305C10.1173 3.03603 6.83512 3.03622 3.5549 2.98344C2.64576 2.96899 2.33835 3.14061 2.34451 4.14606C2.39344 12.2856 2.37186 20.4254 2.37206 28.5653C2.37206 36.768 2.38342 44.971 2.35376 53.1737C2.35106 53.9681 2.57026 54.1726 3.35285 54.1626C6.72803 54.1194 10.1049 54.1077 13.4795 54.1682C14.3908 54.1846 14.552 53.88 14.547 53.0545C14.5143 47.4072 14.5424 41.7598 14.5145 36.1127C14.5108 35.3854 14.6811 35.1046 15.4511 35.1496C16.5515 35.214 17.6627 35.2257 18.7614 35.1469C19.6255 35.0849 19.7965 35.3975 19.7932 36.209C19.7619 43.6547 19.7859 51.1004 19.7576 58.5459C19.7549 59.2981 19.9658 59.4922 20.7047 59.4834C23.9853 59.4441 27.2669 59.4502 30.5479 59.4799C31.1914 59.4859 31.4096 59.3302 31.4089 58.6494C31.3907 42.7485 31.3896 26.8476 31.4119 10.9467C31.4129 10.1982 31.1544 10.0709 30.4858 10.0772Z" fill="black"/>
<path d="M139.269 21.9893C139.639 21.6193 139.886 21.2683 139.88 20.6922C139.849 17.443 139.84 14.193 139.884 10.944C139.894 10.1922 139.625 10.0713 138.959 10.0774C135.678 10.1077 132.397 10.1108 129.116 10.0755C128.418 10.068 128.191 10.2442 128.201 10.9673C128.241 13.8377 128.196 16.7091 128.233 19.5797C128.241 20.2313 128.021 20.6038 127.485 20.9484C125.734 22.074 123.994 23.2186 122.299 24.4255C121.595 24.9261 121.298 24.8997 120.881 24.0826C118.617 19.6448 116.287 15.2403 113.977 10.8257C113.793 10.4744 113.689 10.0794 113.132 10.0821C109.446 10.1007 105.759 10.0917 101.908 10.0917C102.122 10.5648 102.255 10.8787 102.403 11.185C106.119 18.8452 109.832 26.5065 113.562 34.1598C113.833 34.7159 113.96 35.262 113.959 35.8789C113.947 43.482 113.963 51.0852 113.933 58.6883C113.93 59.4761 114.146 59.6918 114.929 59.6818C118.241 59.6394 121.554 59.6356 124.866 59.6837C125.684 59.6957 125.841 59.4287 125.838 58.669C125.81 51.2553 125.831 43.8412 125.805 36.4275C125.803 35.7344 126.016 35.2645 126.499 34.7837C130.768 30.5313 135.01 26.252 139.269 21.9893Z" fill="black"/>
<path d="M156.142 15.5047C152.766 15.5326 149.389 15.5326 146.013 15.5049C145.378 15.4997 145.072 15.6409 145.154 16.3316C145.202 16.7361 145.162 17.151 145.162 17.5613C145.162 25.5765 145.141 33.592 145.189 41.607C145.195 42.6069 144.9 42.8419 143.978 42.7724C142.942 42.6943 141.893 42.7026 140.856 42.771C140.053 42.8242 139.86 42.5439 139.865 41.7656C139.899 36.559 139.885 31.3521 139.877 26.1453C139.876 25.8163 139.98 25.4646 139.765 25.1237C139.672 25.1705 139.58 25.1932 139.52 25.2493C135.876 28.652 132.237 32.0603 128.588 35.4571C128.273 35.7494 128.212 36.0778 128.213 36.4721C128.221 39.0913 128.225 41.7107 128.209 44.3296C128.207 44.775 128.348 45.0968 128.661 45.4115C131.395 48.1659 134.12 50.9301 136.836 53.703C137.146 54.0199 137.466 54.1541 137.913 54.1532C143.972 54.1404 150.031 54.135 156.09 54.1584C156.749 54.1609 156.94 53.9752 156.939 53.3128C156.92 40.9743 156.921 28.6356 156.937 16.2971C156.938 15.6794 156.761 15.4995 156.142 15.5047Z" fill="black"/>
<path d="M159.587 43.0277C164.041 41.5336 168.494 40.0361 172.958 38.5743C173.566 38.3755 173.792 38.1182 173.789 37.4548C173.773 34.8052 173.841 32.1552 173.847 29.5053C173.848 29.0626 174.119 28.4757 173.636 28.1941C173.043 27.8476 172.296 27.5263 171.649 27.7519C170.409 28.1841 169.008 28.3542 168.27 29.7691C167.842 30.5908 167.112 31.258 166.502 31.9813C165.033 33.7227 164.27 33.6239 163.246 31.5624C163.121 31.3102 163.038 31.035 162.955 30.7644C162.558 29.4679 162.123 28.1808 161.785 26.8693C161.234 24.7377 159.897 23.0126 158.914 20.9434C158.859 21.183 158.825 21.2639 158.825 21.3448C158.795 28.4116 158.779 35.4784 158.726 42.545C158.72 43.4028 159.098 43.1917 159.587 43.0277Z" fill="black"/>
<path d="M191.04 11.3269C187.793 12.4495 184.524 13.5083 181.27 14.6104C180.369 14.9155 179.535 16.3449 179.802 17.1889C179.969 17.7167 179.606 17.7479 179.344 17.9338C178.124 18.7994 178.108 19.43 179.242 20.3711C179.824 20.854 180.346 21.412 180.948 21.8674C182.022 22.6812 182.568 24.1955 184.171 24.3174C184.236 24.3224 184.31 24.4407 184.348 24.5212C185.164 26.2056 186.534 27.515 187.438 29.1501C188.494 31.0595 189.332 33.064 190.264 35.0275C190.534 35.5959 190.911 36.0638 190.174 36.5409C189.942 36.6913 190.053 36.9379 190.106 37.1482C190.292 37.8877 190.334 38.6414 190.349 39.3999C190.368 40.3456 190.386 41.2917 190.443 42.2355C190.457 42.4732 190.418 42.8727 190.868 42.8024C191.187 42.7525 191.485 42.6379 191.465 42.2122C191.453 41.9607 191.473 41.7078 191.473 41.4555C191.474 36.5985 191.473 31.7415 191.473 26.8846C191.556 26.8846 191.638 26.8846 191.72 26.8846C191.72 21.9014 191.718 16.9183 191.724 11.9354C191.724 11.451 191.792 11.0671 191.04 11.3269Z" fill="black"/>
<path d="M173.456 6.04177C168.799 7.61562 164.135 9.16983 159.468 10.7131C159.038 10.8554 158.875 11.0702 158.875 11.5222C158.874 14.1075 158.846 16.6928 158.837 19.278C158.836 19.4768 158.715 19.8037 158.991 19.8538C159.995 20.036 160.371 21.0052 161.123 21.5016C161.339 21.2385 160.89 20.8619 161.287 20.6583C161.466 20.5668 161.581 20.6718 161.658 20.8301C162.143 21.8363 162.81 22.7249 162.759 23.9811C162.67 26.1715 164.18 27.7675 165.125 29.6289C165.458 28.3272 166.925 27.6076 166.482 25.9294C166.283 25.1749 167.004 24.1614 167.826 23.5622C168.504 23.0685 169.361 22.851 169.314 21.605C169.279 20.6654 169.514 20.5778 168.379 20.4563C168.663 21.0865 167.994 21.6395 167.835 21.5491C167.01 21.0797 166.912 22.0126 166.386 22.1834C166.354 21.9294 166.325 21.7071 166.294 21.4594C165.804 21.6792 165.267 22.149 165.216 21.1217C165.203 20.879 164.965 20.8841 164.79 21.0428C164.562 21.2496 164.465 21.1366 164.439 20.8964C164.389 20.4291 164.216 20.2444 163.703 20.4131C163.432 20.5025 163.157 20.3172 163.099 19.9703C163.794 19.6989 164.184 18.971 163.899 18.4377C163.625 17.9242 163.562 18.7928 163.277 18.5157C163.315 17.5842 164.093 17.0533 164.587 16.3532C164.141 16.1425 163.806 16.7359 163.407 16.4125C163.868 15.7112 164.558 15.4602 165.549 15.5034C165.273 15.295 165.181 15.2175 165.081 15.1526C164.958 15.0727 164.781 15.0411 164.819 14.8323C165.898 14.7634 166.553 14.6073 166.788 14.3134C166.981 14.6909 167.159 14.9036 167.687 14.97C168.407 15.0604 169.176 15.1424 169.888 15.3982C170.887 15.757 171.776 16.8667 171.609 17.6223C171.556 17.8592 171.33 18.0884 171.6 18.2971C171.877 18.5114 172.303 18.5162 172.484 18.3117C173.055 17.6645 173.977 17.2847 173.977 16.1821C173.976 12.9665 174.029 9.75075 174.077 6.53525C174.084 6.04775 174.02 5.85128 173.456 6.04177Z" fill="black"/>
<path d="M173.2 40.5305C168.658 42.0643 164.111 43.5844 159.558 45.0858C159.054 45.2523 158.87 45.4953 158.878 46.0277C158.908 47.826 158.89 49.625 158.89 51.4236C158.877 51.4236 158.864 51.4238 158.852 51.4238C158.852 53.2224 158.874 55.0216 158.84 56.8199C158.827 57.4836 158.974 57.6219 159.633 57.3947C162.703 56.3349 165.788 55.3158 168.875 54.303C169.357 54.1449 169.53 53.963 169.535 53.3883C169.547 52.2415 169.487 51.1262 169.129 50.0335C169.038 49.754 168.962 49.3935 169.307 49.2983C170.577 48.9478 171.87 48.4346 173.176 48.6136C173.893 48.712 173.866 48.5564 173.869 48.044C173.885 45.7089 173.896 43.3733 173.959 41.0392C173.978 40.3417 173.745 40.3462 173.2 40.5305Z" fill="black"/>
<path d="M191.059 45.6173C190.87 46.332 190.44 46.8328 189.89 47.2851C189.46 47.6384 189.078 47.4687 188.665 47.2888C188.46 47.1994 188.295 47.3304 188.169 47.4743C187.21 48.5768 185.925 49.2837 185.237 50.7685C184.508 52.3416 183.947 53.7315 184.651 55.3971C184.675 55.4539 184.68 55.5194 184.69 55.5816C184.743 55.926 184.644 56.2047 184.333 56.3869C183.994 56.5857 183.729 56.4451 183.5 56.1891C182.911 55.5327 182.318 54.8791 181.742 54.2115C181.512 53.9451 181.386 53.6281 181.386 53.2588C181.387 50.8733 180.272 49.8396 177.926 50.0445C177.707 50.0636 177.491 50.1325 177.272 50.1408C176.722 50.1616 176.534 50.4153 176.537 50.9775C176.555 54.3502 176.545 57.7231 176.522 61.0957C176.518 61.6536 176.629 61.8109 177.212 61.6116C180.432 60.511 183.676 59.4818 186.886 58.3552C189.233 57.532 191.772 55.2896 191.55 51.7582C191.42 49.6878 191.576 47.5995 191.593 45.5192C191.595 45.2176 191.691 44.8953 191.449 44.555C190.973 44.8408 191.147 45.2813 191.059 45.6173Z" fill="black"/>
<path d="M177.051 47.4411C178.085 47.063 179.132 46.7167 180.186 46.4002C180.681 46.2519 180.844 46.0216 180.689 45.5158C180.422 44.6436 180.155 43.768 179.961 42.8779C179.779 42.0439 179.464 41.4973 178.474 41.6664C177.815 41.7789 177.818 41.3794 178.014 40.9289C178.406 40.0328 178.293 39.1842 177.933 38.2916C177.321 36.7718 176.812 35.2184 176.993 33.5292C177.04 33.0895 176.884 32.6638 176.592 32.1264C176.523 32.3529 176.476 32.4344 176.476 32.5158C176.452 37.3324 176.437 42.1489 176.404 46.9654C176.401 47.4897 176.527 47.6328 177.051 47.4411Z" fill="black"/>
<path d="M187.642 42.8444C187.064 41.9832 186.554 41.076 186.017 40.1873C185.897 39.9889 185.761 39.7705 185.519 40.0016C185.209 40.2971 184.743 40.4924 184.708 40.9959C184.618 42.2729 184.551 43.5515 184.467 44.9487C185.488 44.6082 186.391 44.3433 187.264 44.002C187.786 43.7976 188.047 43.4479 187.642 42.8444Z" fill="black"/>
<path d="M184.367 48.4743C184.94 47.9336 185.402 47.3544 185.688 46.6002C184.102 46.783 183.874 47.1067 184.367 48.4743Z" fill="black"/>
<path d="M108.35 31.5231C106.406 31.5867 104.458 31.5431 102.379 31.5431C102.571 31.1228 102.69 30.8391 102.828 30.5644C103.887 28.4507 104.929 26.3277 106.026 24.2334C106.307 23.6962 106.293 23.2804 106.047 22.7403C104.126 18.5226 102.239 14.2893 100.335 10.0637C100.227 9.82394 100.196 9.52442 99.8341 9.32642C97.3958 15.262 94.9687 21.1697 92.5417 27.0776C92.4697 27.0691 92.3979 27.0604 92.3258 27.0517C92.3258 26.8119 92.3258 26.5719 92.3258 26.3319C92.3258 21.2217 92.315 16.1113 92.3395 11.0008C92.3426 10.3363 92.2295 10.0587 91.4729 10.0722C88.7609 10.1206 86.0472 10.1084 83.3346 10.0786C82.6674 10.0713 82.5805 10.1955 82.7733 10.8598C83.5852 13.6589 84.0527 16.5864 82.0229 18.9881C80.2198 21.1212 79.948 23.4279 80.1401 25.9843C80.1967 26.737 80.1487 27.4978 80.1487 28.2548C80.1487 36.5513 80.1582 44.848 80.1333 53.1444C80.131 53.8972 80.2801 54.1761 81.1045 54.1645C84.5107 54.116 87.9186 54.1102 91.3246 54.1674C92.2016 54.182 92.4086 53.8956 92.3401 53.0976C92.2754 52.346 92.3262 51.5846 92.3262 50.8275C92.3262 46.3164 92.3424 41.8052 92.3096 37.2946C92.3044 36.5781 92.508 36.3531 93.2142 36.402C94.0617 36.461 94.9167 36.4101 95.7682 36.4174C97.2051 36.4294 97.0478 36.2487 97.0487 37.6559C97.0537 44.6274 97.063 51.5991 97.0349 58.5706C97.0316 59.3844 97.172 59.7055 98.0944 59.6887C101.532 59.6263 104.971 59.634 108.409 59.6852C109.25 59.6977 109.453 59.468 109.451 58.6407C109.42 49.9657 109.418 41.2906 109.452 32.6156C109.455 31.7381 109.214 31.495 108.35 31.5231Z" fill="black"/>
<path d="M63.1143 32.0291C63.1151 31.5044 63.0039 31.0585 62.7148 30.6116C59.9907 26.4015 57.2729 22.1871 54.5865 17.9526C54.2327 17.3948 53.8399 17.233 53.2097 17.2353C47.121 17.2565 41.032 17.2723 34.9437 17.223C33.9841 17.2153 33.825 17.5191 33.831 18.3916C33.8697 24.1331 33.8508 29.8747 33.8508 35.6165C33.8508 41.4843 33.8658 47.3523 33.8327 53.2199C33.8285 53.9844 34.0552 54.1674 34.7881 54.1601C38.321 54.1246 41.8547 54.1227 45.3876 54.1614C46.1323 54.1695 46.3449 53.9684 46.3353 53.2188C46.2941 50.0329 46.3349 46.8463 46.3037 43.6601C46.2972 43.0087 46.4626 42.7614 47.1418 42.8041C48.0216 42.8596 48.9105 42.8631 49.79 42.8035C50.5198 42.754 50.7616 42.9682 50.7512 43.7331C50.7082 46.8873 50.7527 50.0426 50.7184 53.197C50.7107 53.916 50.8733 54.1734 51.6522 54.1634C55.1534 54.1192 58.6559 54.1162 62.157 54.1647C62.9926 54.1763 63.1245 53.8764 63.122 53.1344C63.0968 46.0994 63.1033 39.0641 63.1143 32.0291ZM46.7178 34.8813C46.3665 34.8821 46.3182 34.6644 46.3183 34.3838C46.3208 31.7818 46.3199 29.1795 46.3199 26.5775C46.3921 26.5673 46.4643 26.5571 46.5366 26.5469C47.9793 29.2653 49.4221 31.9836 50.9592 34.88C49.4427 34.88 48.0802 34.8778 46.7178 34.8813Z" fill="black"/>
<path d="M77.3583 24.817C73.73 24.849 70.1012 24.8504 66.4731 24.8163C65.7768 24.8097 65.5642 24.9808 65.5696 25.7019C65.6029 30.2767 65.5865 34.8519 65.5865 39.4268C65.5863 44.0334 65.5998 48.6402 65.5717 53.2465C65.5676 53.9293 65.7125 54.1703 66.4508 54.162C70.0789 54.1222 73.7077 54.1295 77.336 54.1576C77.9872 54.1626 78.1968 53.9844 78.1954 53.3151C78.1756 44.102 78.1762 34.8888 78.1945 25.6755C78.1956 25.0318 78.0354 24.8113 77.3583 24.817Z" fill="black"/>
<path d="M77.9891 5.83203C73.5654 2.5023 67.1839 3.33151 63.8917 7.72408C61.6292 10.7431 61.1789 14.0848 62.7006 17.5385C64.1459 20.8191 66.7123 22.7935 70.3073 23.3355C70.486 23.3917 70.6631 23.4248 70.8362 23.404C73.5654 23.7615 76.0133 23.049 78.1806 21.2676C78.9091 20.801 79.4628 20.1546 79.9692 19.472C83.1874 15.1328 82.3049 9.08046 77.9891 5.83203ZM80.4731 10.0848C78.4038 8.86147 76.5025 7.46675 75.5219 5.12263C77.9094 6.03504 79.5412 7.71001 80.4731 10.0848ZM63.9942 16.6146C63.3793 14.643 63.3745 12.744 64.5181 10.8899C65.3124 9.60207 66.4677 8.50031 66.6022 6.82631C66.6548 6.17142 67.7382 5.69932 68.2567 5.90599C68.844 6.14002 69.0528 6.92897 68.7265 7.71367C68.6055 8.00491 68.4486 8.2788 68.2864 8.55001C67.6226 9.66139 66.8397 10.6898 66.0729 11.7291C65.3009 12.776 64.911 13.9667 64.8317 15.2464C64.7743 16.1689 64.9832 17.0678 65.3729 17.9078C65.5027 18.1873 65.8063 18.4617 66.1461 18.6553C65.1304 18.3402 64.3366 17.7127 63.9942 16.6146ZM67.2054 21.8123C66.2917 21.3485 65.5956 20.7334 64.9131 19.9455C66.9641 20.0466 67.2938 20.3078 67.2054 21.8123ZM79.6477 14.6828C78.9382 14.7711 78.279 14.5496 77.6191 14.3238C75.6622 13.6549 73.8152 13.8569 72.1703 15.1497C70.8605 16.1789 69.9382 17.5366 69.1743 19.002C68.954 19.4252 68.7302 19.8852 69.1397 20.3141C69.5253 20.7178 69.9596 20.4994 70.3633 20.318C71.2507 19.9191 72.1512 19.8468 72.9989 20.3542C74.2596 21.1088 75.6123 21.2173 77.0161 21.0443C77.0519 21.0399 77.0854 21.0374 77.1201 21.0335C76.9716 21.0992 76.8281 21.1815 76.6934 21.2701C75.2902 22.1923 73.7223 22.5467 72.0834 22.6829C71.7748 22.7087 71.4618 22.7245 71.2448 22.9533C71.2303 22.7611 71.1147 22.5956 70.9576 22.4375C70.4685 21.9456 69.9901 21.4498 69.3423 21.1478C68.822 20.9051 68.2972 20.5849 68.1236 20.0181C67.9349 19.4019 67.5633 19.0976 67.0687 18.9127C67.1035 18.9098 67.1415 18.9119 67.1735 18.9044C67.9029 18.7326 67.706 18.0777 67.7814 17.5792C67.9135 16.7045 68.104 15.8562 68.4646 15.0344C69.377 12.9551 70.8549 11.4134 72.8485 10.3839C73.6472 9.9715 74.0159 9.562 73.9221 8.89074C74.1157 9.77773 74.6136 10.2989 75.3594 10.6957C76.7551 11.4383 78.1631 12.1536 79.7589 12.3493C80.4598 12.4352 80.8776 12.7301 80.8618 13.4832C80.8479 14.1591 80.4301 14.5858 79.6477 14.6828Z" fill="black"/>
</svg>
